<?xml version="1.0" encoding="utf-8"?>
<!-- Generator: Adobe Illustrator 19.1.0, SVG Export Plug-In . SVG Version: 6.00 Build 0)  -->
<svg version="1.1" id="Layer_1" xmlns="http://www.w3.org/2000/svg" xmlns:xlink="http://www.w3.org/1999/xlink" x="0px" y="0px"
	 viewBox="0 0 904.1 150" style="enable-background:new 0 0 904.1 150;" xml:space="preserve">
<style type="text/css">
	.st0{fill:#FF8000;}
	.st1{font-family:'OpenSans-Light';}
	.st2{font-size:101px;}
	.st3{fill:#0080FF;}
	.st4{fill:none;stroke:#F0F0F0;stroke-width:2;stroke-miterlimit:10;}
	.st5{fill:#F0F0F0;}
</style>
<text transform="matrix(1 0 0 1 30.7465 112.1702)" class="st0 st1 st2">G</text>
<text transform="matrix(1 0 0 1 148.5322 103.1282)" class="st3 st1 st2">R</text>
<text transform="matrix(1 0 0 1 257.0156 112.1704)" class="st0 st1 st2">A</text>
<text transform="matrix(1 0 0 1 371.2556 103.1278)" class="st3 st1 st2">P</text>
<text transform="matrix(1 0 0 1 469.8449 112.1695)" class="st0 st1 st2">H</text>
<g>
	<g>
		<path class="st4" d="M887.7,77.2c-6.6,17.2-51.8,124.3-107.5-1.8C719.9-61,670.3,76,670.3,76h-0.5c0,0-47.9,136.5-108.3,0
			s-109.9,0-109.9,0H451c0,0-47.9,136.5-108.3,0s-109.9,0-109.9,0h-0.5c0,0-47.9,136-108.3-0.5C68.3-50.5,21.8,55.8,14.9,73"/>
		<g>
			<path class="st5" d="M873.8,86.5c0.3,0.4,1,0.5,1.4,0.2l12.3-9.1l3,15c0.1,0.5,0.6,0.9,1.2,0.8c0.5-0.1,0.9-0.6,0.8-1.2
				l-3.3-16.5c-0.1-0.3-0.3-0.6-0.6-0.7c-0.3-0.1-0.7-0.1-1,0.1l-13.6,10c-0.2,0.1-0.3,0.3-0.3,0.4
				C873.5,85.9,873.6,86.2,873.8,86.5z"/>
		</g>
		<g>
			<path class="st5" d="M11.1,56.6c0.5-0.1,1.1,0.3,1.2,0.8l2.8,15l12.4-8.9c0.4-0.3,1.1-0.2,1.4,0.2c0.3,0.4,0.2,1.1-0.2,1.4L15,75
				c-0.3,0.2-0.6,0.2-1,0.1s-0.5-0.4-0.6-0.7l-3.1-16.6c0-0.2,0-0.4,0.1-0.6C10.5,56.9,10.8,56.7,11.1,56.6z"/>
		</g>
	</g>
</g>
<text transform="matrix(1 0 0 1 571.6698 103.1282)" class="st3 st1 st2">W</text>
<text transform="matrix(1 0 0 1 693.5377 112.1694)" class="st0 st1 st2">A</text>
<text transform="matrix(1 0 0 1 804.808 103.128)" class="st3 st1 st2">R</text>
</svg>
