<?xml version="1.0" encoding="utf-8"?>
<!-- Generator: Adobe Illustrator 19.1.0, SVG Export Plug-In . SVG Version: 6.00 Build 0)  -->
<svg version="1.1" id="Layer_1" xmlns="http://www.w3.org/2000/svg" xmlns:xlink="http://www.w3.org/1999/xlink" x="0px" y="0px"
	 viewBox="0 0 904.1 150" style="enable-background:new 0 0 904.1 150;" xml:space="preserve">
<style type="text/css">
	.st0{fill:#FF8000;}
	.st1{font-family:'OpenSans-Light';}
	.st2{font-size:101px;}
	.st3{fill:#0080FF;}
	.st4{fill:none;stroke:#F0F0F0;stroke-width:2;stroke-miterlimit:10;}
	.st5{fill:#F0F0F0;}
</style>
<text transform="matrix(1 0 0 1 30.7465 112.1702)" class="st0 st1 st2">G</text>
<text transform="matrix(1 0 0 1 147.5322 103.1282)" class="st3 st1 st2">R</text>
<text transform="matrix(1 0 0 1 257.0156 112.1704)" class="st0 st1 st2">A</text>
<text transform="matrix(1 0 0 1 368.2556 103.1278)" class="st3 st1 st2">P</text>
<text transform="matrix(1 0 0 1 468.8449 112.1695)" class="st0 st1 st2">H</text>
<g>
	<g>
		<path class="st4" d="M232.3,75.5c0,0-47.9,136.3-108.3-0.2C68.3-50.8,21.8,55.7,14.9,72.9"/>
		<g>
			<path class="st5" d="M11.1,56.6c0.5-0.1,1.1,0.3,1.2,0.8l2.8,15l12.4-8.9c0.4-0.3,1.1-0.2,1.4,0.2c0.3,0.4,0.2,1.1-0.2,1.4L15,75
				c-0.3,0.2-0.6,0.2-1,0.1s-0.5-0.4-0.6-0.7l-3.1-16.6c0-0.2,0-0.4,0.1-0.6C10.5,56.9,10.8,56.7,11.1,56.6z"/>
		</g>
	</g>
</g>
<text transform="matrix(1 0 0 1 569.6698 103.1282)" class="st3 st1 st2">W</text>
<text transform="matrix(1 0 0 1 691.5377 112.1694)" class="st0 st1 st2">A</text>
<text transform="matrix(1 0 0 1 802.808 103.128)" class="st3 st1 st2">R</text>
<path class="st4" d="M450.3,76.5c0,0-47.9,136.3-108.3-0.2s-109.9-0.1-109.9-0.1"/>
<path class="st4" d="M668.3,77.5c0,0-47.9,136.3-108.3-0.2c-60.3-136.5-109.9-0.1-109.9-0.1"/>
<g>
	<g>
		<path class="st4" d="M885.4,80.7c-6.6,17.2-51.8,123.5-107.5-2.5c-60.3-136.5-109.9-0.1-109.9-0.1"/>
		<g>
			<path class="st5" d="M871.5,90c0.3,0.4,1,0.5,1.4,0.2l12.3-9l3,15c0.1,0.5,0.6,0.9,1.2,0.8c0.5-0.1,0.9-0.6,0.8-1.2l-3.3-16.5
				c-0.1-0.3-0.3-0.6-0.6-0.7c-0.3-0.1-0.7-0.1-1,0.1l-13.6,10c-0.2,0.1-0.3,0.3-0.3,0.4C871.3,89.3,871.3,89.7,871.5,90z"/>
		</g>
	</g>
</g>
</svg>
