<?xml version="1.0" encoding="utf-8"?>
<!-- Generator: Adobe Illustrator 19.0.0, SVG Export Plug-In . SVG Version: 6.00 Build 0)  -->
<svg version="1.1" id="Layer_1" xmlns="http://www.w3.org/2000/svg" xmlns:xlink="http://www.w3.org/1999/xlink" x="0px" y="0px"
	 viewBox="0 0 512 512" style="enable-background:new 0 0 512 512;" xml:space="preserve">
<style type="text/css">
	.st0{fill:#FF8000;}
	.st1{fill:#0080FF;}
	.st2{fill:#FFFFFF;}
	.st3{font-family:'FiraSans-Bold';}
	.st4{font-size:150px;}
	.st5{fill:#231F20;}
	.st6{font-family:'FiraSans-Light';}
	.st7{fill:none;stroke:#000000;stroke-width:2;stroke-miterlimit:10;}
</style>
<g id="XMLID_405_">
	<polygon id="XMLID_399_" class="st0" points="218.6,217.2 132,267.2 45.4,217.2 45.4,117.2 132,67.2 218.6,117.2 	"/>
	<polygon id="XMLID_400_" class="st1" points="305.2,366.8 218.6,416.8 132,366.8 132,266.8 218.6,216.8 305.2,266.8 	"/>
	<text id="XMLID_401_" transform="matrix(1 0 0 1 81.7394 216.8196)"><tspan x="0" y="0" class="st2 st3 st4">G</tspan><tspan x="96.7" y="0" class="st5 st6 st4">raph</tspan></text>
	<text id="XMLID_402_" transform="matrix(1 0 0 1 160.0172 369.8195)"><tspan x="0" y="0" class="st2 st3 st4">W</tspan><tspan x="127" y="0" class="st5 st6 st4">ar</tspan></text>
	<g id="XMLID_404_">
		<g id="XMLID_474_">
			<polyline id="XMLID_479_" class="st7" points="27.5,208.4 132,266.8 218.6,216.8 323.1,275.6 			"/>
			<g id="XMLID_477_">
				<path id="XMLID_478_" d="M34.8,223.4c0.5-0.3,0.7-0.9,0.4-1.4l-7.2-13.5l15.3-0.9c0.6,0,1-0.5,0.9-1.1s-0.5-1-1.1-0.9l-16.8,1
					c-0.3,0-0.6,0.2-0.8,0.5s-0.2,0.7,0,1l8,14.9c0.1,0.2,0.2,0.3,0.4,0.4C34.1,223.6,34.4,223.6,34.8,223.4z"/>
			</g>
			<g id="XMLID_475_">
				<path id="XMLID_476_" d="M306.5,277.3c0-0.6,0.4-1,0.9-1.1l15.3-0.8l-7.2-13.5c-0.3-0.5-0.1-1.1,0.4-1.4
					c0.5-0.3,1.1-0.1,1.4,0.4l8,14.9c0.2,0.3,0.2,0.7,0,1s-0.5,0.5-0.8,0.5l-16.8,0.9c-0.2,0-0.4,0-0.5-0.1
					C306.7,278,306.5,277.7,306.5,277.3z"/>
			</g>
		</g>
	</g>
</g>
</svg>
