<?xml version="1.0" encoding="utf-8"?>
<!-- Generator: Adobe Illustrator 19.0.0, SVG Export Plug-In . SVG Version: 6.00 Build 0)  -->
<svg version="1.1" id="Layer_1" xmlns="http://www.w3.org/2000/svg" xmlns:xlink="http://www.w3.org/1999/xlink" x="0px" y="0px"
	 viewBox="0 0 512 512" style="enable-background:new 0 0 512 512;" xml:space="preserve">
<style type="text/css">
	.st0{fill:#FF8000;}
	.st1{fill:#0080FF;}
	.st2{fill:#FFFFFF;}
	.st3{fill:#221F1F;}
</style>
<g id="XMLID_1_">
	<g id="XMLID_399_">
		<polygon class="st0" points="218.6,217.2 132,267.2 45.4,217.2 45.4,117.2 132,67.2 218.6,117.2 		"/>
	</g>
	<g id="XMLID_400_">
		<polygon class="st1" points="305.2,366.8 218.6,416.8 132,366.8 132,266.8 218.6,216.8 305.2,266.8 		"/>
	</g>
	<g id="XMLID_401_">
		<path id="XMLID_15_" class="st2" d="M171.1,123.1l-12.8,13.4c-3.5-2.9-6.8-5-10-6.3c-3.1-1.3-6.8-1.9-10.9-1.9
			c-7.7,0-13.9,3-18.4,9.1c-4.6,6.1-6.9,15.2-6.9,27.5c0,13.3,1.7,22.7,5.2,28.3c3.5,5.5,8.9,8.3,16.3,8.3c5.2,0,9.9-1.1,14.1-3.4
			v-23.6h-13.5L132,157h39.8v51.5c-5.4,3.5-11.4,6.2-17.9,8.1c-6.5,1.9-13.2,2.8-19.9,2.8c-15.6,0-27.4-4.6-35.3-13.9
			c-8-9.2-11.9-22.8-11.9-40.7c0-11.4,2.2-21.2,6.5-29.4c4.4-8.2,10.3-14.4,17.9-18.7c7.5-4.2,16-6.4,25.3-6.4
			C149.8,110.3,161.4,114.6,171.1,123.1z"/>
		<path id="XMLID_17_" class="st3" d="M232.6,137.6l-1.6,8.2c-2.2-0.6-4.5-0.9-6.9-0.9c-5.4,0-9.7,2-13,5.9c-3.3,3.9-5.9,10-8,18.3
			v47.7h-8.7v-78.5h7.5l0.8,17.6c2.1-6.5,5-11.3,8.6-14.5c3.6-3.1,8.2-4.7,13.6-4.7C227.9,136.7,230.5,137,232.6,137.6z"/>
		<path id="XMLID_19_" class="st3" d="M297.7,208.3c1.1,1.8,2.7,3.1,5,4l-2,6.1c-3.6-0.8-6.4-2.2-8.3-4.2c-2-2-3.2-5-3.8-8.9
			c-5.7,8.7-13.9,13-24.5,13c-7.5,0-13.4-2.1-17.8-6.4c-4.3-4.2-6.5-9.9-6.5-17c0-8.2,2.9-14.5,8.6-18.9c5.7-4.4,13.7-6.6,23.9-6.6
			h15v-7.5c0-6.3-1.4-10.9-4.2-13.7c-2.8-2.9-7.5-4.3-14-4.3c-6,0-13.1,1.5-21.3,4.5l-2.2-6.6c8.8-3.5,17-5.2,24.7-5.2
			c17.1,0,25.7,8.3,25.7,24.9v37.8C296.1,203.5,296.6,206.5,297.7,208.3z M287.4,197.3V176h-13.7c-8,0-14.1,1.6-18.3,4.6
			c-4.2,3.1-6.3,7.8-6.3,13.9c0,5.4,1.4,9.6,4.3,12.5c2.9,2.9,6.9,4.4,12.1,4.4C275.2,211.4,282.5,206.7,287.4,197.3z"/>
		<path id="XMLID_22_" class="st3" d="M381.5,147.3c4.7,7,7.1,17,7.1,29.9c0,12.6-2.6,22.6-7.7,30.1c-5.2,7.5-12.5,11.2-22.1,11.2
			c-4.7,0-9-1-12.8-2.9c-3.8-2-7-4.6-9.6-7.9v38.7l-8.7,1.2V138.4h7.5l0.8,11.4c2.9-4.1,6.4-7.3,10.5-9.6c4.1-2.3,8.6-3.5,13.6-3.5
			C369.6,136.7,376.8,140.2,381.5,147.3z M373.6,202.6c3.8-5.7,5.7-14.1,5.7-25.4c0-22.2-7-33.3-20.8-33.3c-4.7,0-8.8,1.2-12.2,3.6
			c-3.5,2.4-6.7,5.7-9.8,9.9v41.7c2.5,3.8,5.5,6.8,9,8.9c3.5,2.1,7.4,3.1,11.7,3.1C364.3,211.1,369.8,208.3,373.6,202.6z"/>
		<path id="XMLID_25_" class="st3" d="M465.7,143.1c3.8,4.3,5.7,10.1,5.7,17.6v56.1h-8.7v-54.9c0-12.1-5-18.1-14.8-18.1
			c-5,0-9.4,1.4-13.3,4.1c-3.9,2.8-7.5,6.8-11,12.1v56.9h-8.7V106.4l8.7-1.1v46.1c7-9.8,15.6-14.7,26-14.7
			C456.5,136.7,461.9,138.8,465.7,143.1z"/>
	</g>
	<g id="XMLID_402_">
		<path id="XMLID_8_" class="st2" d="M236.2,369.8l-12.9-79.3l-13.6,79.3h-31.2l-17.1-104H186l10.3,85.4l14.4-85.4h25.8l13.5,85.4
			l12.1-85.4h23.4l-17.4,104H236.2z"/>
		<path id="XMLID_10_" class="st3" d="M353.3,361.3c1,1.8,2.7,3.2,5,4l-2,6.2c-3.6-0.8-6.4-2.2-8.3-4.2c-2-2-3.2-5-3.8-8.8
			c-5.7,8.7-13.9,13-24.5,13c-7.5,0-13.4-2.1-17.8-6.4c-4.3-4.2-6.5-9.9-6.5-17c0-8.2,2.9-14.5,8.6-18.9c5.7-4.4,13.7-6.6,23.9-6.6
			h15v-7.5c0-6.3-1.4-10.9-4.2-13.7c-2.8-2.9-7.5-4.3-14-4.3c-6,0-13.1,1.5-21.3,4.5l-2.2-6.6c8.8-3.5,17-5.2,24.8-5.2
			c17.1,0,25.7,8.3,25.7,24.9v37.8C351.7,356.5,352.2,359.5,353.3,361.3z M343,350.3V329h-13.7c-8,0-14.1,1.6-18.3,4.7
			c-4.2,3.1-6.3,7.8-6.3,13.9c0,5.4,1.4,9.6,4.3,12.5c2.9,2.9,6.9,4.4,12.2,4.4C330.9,364.4,338.1,359.7,343,350.3z"/>
		<path id="XMLID_13_" class="st3" d="M421.6,290.6l-1.7,8.2c-2.2-0.6-4.5-0.9-6.9-0.9c-5.4,0-9.7,2-13,5.8c-3.3,3.9-5.9,10-8,18.3
			v47.7h-8.7v-78.5h7.5l0.8,17.6c2.1-6.5,5-11.3,8.6-14.5c3.6-3.1,8.2-4.7,13.6-4.7C416.9,289.7,419.5,290,421.6,290.6z"/>
	</g>
	<g id="XMLID_404_">
		<g id="XMLID_7_">
			<polygon id="XMLID_2_" points="322.6,276.5 218.6,218 132,268 27,209.2 28,207.5 132,265.7 218.6,215.7 219.1,215.9 323.6,274.8 
							"/>
		</g>
		<g id="XMLID_5_">
			<g id="XMLID_6_">
				<path d="M34.8,223.4c0.5-0.3,0.7-0.9,0.4-1.4l-7.2-13.5l15.3-0.9c0.6,0,1-0.5,0.9-1.1c0-0.6-0.5-1-1.1-0.9l-16.8,1
					c-0.3,0-0.6,0.2-0.8,0.5c-0.2,0.3-0.2,0.7,0,1l8,14.9c0.1,0.2,0.2,0.3,0.4,0.4C34.1,223.6,34.4,223.6,34.8,223.4z"/>
			</g>
		</g>
		<g id="XMLID_3_">
			<g id="XMLID_4_">
				<path d="M306.5,277.3c0-0.6,0.4-1,0.9-1.1l15.3-0.8l-7.2-13.5c-0.3-0.5-0.1-1.1,0.4-1.4c0.5-0.3,1.1-0.1,1.4,0.4l8,14.9
					c0.2,0.3,0.2,0.7,0,1c-0.2,0.3-0.5,0.5-0.8,0.5l-16.8,0.9c-0.2,0-0.4,0-0.5-0.1C306.7,278,306.5,277.7,306.5,277.3z"/>
			</g>
		</g>
	</g>
</g>
</svg>
