<?xml version="1.0" encoding="utf-8"?>
<!-- Generator: Adobe Illustrator 19.1.0, SVG Export Plug-In . SVG Version: 6.00 Build 0)  -->
<svg version="1.1" id="Layer_1" xmlns="http://www.w3.org/2000/svg" xmlns:xlink="http://www.w3.org/1999/xlink" x="0px" y="0px"
	 viewBox="0 0 40 40" style="enable-background:new 0 0 40 40;" xml:space="preserve">
<style type="text/css">
	.st0{fill:#0088FF;}
	.st1{fill:#FF8800;}
	.st2{fill:#F0F0F0;}
	.st3{fill:#505050;}
</style>
<g>
	<path class="st0" d="M-34.7,39c-2.3,0-4.2-1.9-4.2-4.2V5.2c0-2.3,1.9-4.2,4.2-4.2h29.5C-2.9,1-1,2.9-1,5.2v29.5
		c0,2.3-1.9,4.2-4.2,4.2H-34.7z"/>
	<path class="st1" d="M-5.2,2C-3.4,2-2,3.5-2,5.2v29.5c0,1.8-1.5,3.2-3.2,3.2h-29.5c-1.8,0-3.2-1.5-3.2-3.2V5.2
		c0-1.8,1.5-3.2,3.2-3.2H-5.2 M-5.2,0h-29.5C-37.6,0-40,2.4-40,5.2v29.5c0,2.9,2.4,5.2,5.2,5.2h29.5c2.9,0,5.2-2.4,5.2-5.2V5.2
		C0,2.4-2.3,0-5.2,0L-5.2,0z"/>
</g>
<g>
	<path class="st0" d="M5.3,39C2.9,39,1,37.1,1,34.8V5.2C1,2.9,2.9,1,5.3,1h29.5C37.1,1,39,2.9,39,5.2v29.5c0,2.3-1.9,4.2-4.2,4.2
		H5.3z"/>
	<path class="st1" d="M34.8,2C36.6,2,38,3.5,38,5.2v29.5c0,1.8-1.5,3.2-3.2,3.2H5.3C3.5,38,2,36.5,2,34.8V5.2C2,3.5,3.5,2,5.3,2
		H34.8 M34.8,0H5.3C2.4,0,0,2.4,0,5.2v29.5C0,37.6,2.4,40,5.3,40h29.5c2.9,0,5.2-2.4,5.2-5.2V5.2C40,2.4,37.7,0,34.8,0L34.8,0z"/>
</g>
<g>
	<rect x="7.2" y="16.5" transform="matrix(-0.7071 0.7071 -0.7071 -0.7071 53.9405 17.6567)" class="st2" width="32.3" height="7"/>
	<path class="st3" d="M32.2,6.6l4.4,4.4L14.4,33.4L10,28.9L32.2,6.6 M32.2,5.6L8.9,28.9l5.5,5.5l23.3-23.3L32.2,5.6L32.2,5.6z"/>
</g>
<g>
	<rect x="7.7" y="18" transform="matrix(-0.7071 0.7071 -0.7071 -0.7071 37.4346 36.1623)" class="st2" width="7" height="15.8"/>
	<path class="st3" d="M8.1,18.3l10.6,10.6l-4.4,4.4L3.7,22.7L8.1,18.3 M8.1,17.3l-5.5,5.5l11.7,11.7l5.5-5.5L8.1,17.3L8.1,17.3z"/>
</g>
<rect x="14.1" y="21.8" transform="matrix(-0.7071 -0.7071 0.7071 -0.7071 11.0845 56.6622)" class="st2" width="6.3" height="8.5"/>
</svg>
