<?xml version="1.0" encoding="utf-8"?>
<!-- Generator: Adobe Illustrator 19.1.0, SVG Export Plug-In . SVG Version: 6.00 Build 0)  -->
<svg version="1.1" id="Layer_1" xmlns="http://www.w3.org/2000/svg" xmlns:xlink="http://www.w3.org/1999/xlink" x="0px" y="0px"
	 viewBox="0 0 40 40" style="enable-background:new 0 0 40 40;" xml:space="preserve">
<style type="text/css">
	.st0{fill:#0088FF;}
	.st1{fill:#FF8800;}
	.st2{fill:#F0F0F0;}
	.st3{fill:#505050;}
</style>
<g>
	<path class="st0" d="M5.2,39C2.9,39,1,37.1,1,34.8V5.2C1,2.9,2.9,1,5.2,1h29.5C37.1,1,39,2.9,39,5.2v29.5c0,2.3-1.9,4.2-4.2,4.2
		H5.2z"/>
	<path class="st1" d="M34.8,2C36.5,2,38,3.5,38,5.2v29.5c0,1.8-1.5,3.2-3.2,3.2H5.2C3.5,38,2,36.5,2,34.8V5.2C2,3.5,3.5,2,5.2,2
		H34.8 M34.8,0H5.2C2.4,0,0,2.4,0,5.2v29.5C0,37.6,2.4,40,5.2,40h29.5c2.9,0,5.2-2.4,5.2-5.2V5.2C40,2.4,37.6,0,34.8,0L34.8,0z"/>
</g>
<g>
	<path class="st0" d="M45.2,39c-2.3,0-4.2-1.9-4.2-4.2V5.2C41,2.9,42.9,1,45.2,1h29.5C77.1,1,79,2.9,79,5.2v29.5
		c0,2.3-1.9,4.2-4.2,4.2H45.2z"/>
	<path class="st1" d="M74.8,2C76.5,2,78,3.5,78,5.2v29.5c0,1.8-1.5,3.2-3.2,3.2H45.2c-1.8,0-3.2-1.5-3.2-3.2V5.2
		C42,3.5,43.5,2,45.2,2H74.8 M74.8,0H45.2C42.4,0,40,2.4,40,5.2v29.5c0,2.9,2.4,5.2,5.2,5.2h29.5c2.9,0,5.2-2.4,5.2-5.2V5.2
		C80,2.4,77.6,0,74.8,0L74.8,0z"/>
</g>
<g>
	
		<rect x="47.2" y="16.5" transform="matrix(-0.7071 0.7071 -0.7071 -0.7071 122.1889 -10.6135)" class="st2" width="32.3" height="7"/>
	<path class="st3" d="M72.2,6.6l4.4,4.4L54.4,33.4l-4.4-4.4L72.2,6.6 M72.2,5.6L48.9,28.9l5.5,5.5l23.3-23.3L72.2,5.6L72.2,5.6z"/>
</g>
<g>
	<rect x="47.7" y="18" transform="matrix(-0.7071 0.7071 -0.7071 -0.7071 105.6836 7.8927)" class="st2" width="7" height="15.8"/>
	<path class="st3" d="M48.1,18.3l10.6,10.6l-4.4,4.4L43.7,22.7L48.1,18.3 M48.1,17.3l-5.5,5.5l11.7,11.7l5.5-5.5L48.1,17.3
		L48.1,17.3z"/>
</g>
<rect x="54.1" y="21.8" transform="matrix(-0.7071 -0.7071 0.7071 -0.7071 79.3335 84.9318)" class="st2" width="6.3" height="8.5"/>
</svg>
